<svg width="100px" viewBox="0 0 32 28" version="1.1" xmlns="http://www.w3.org/2000/svg" xmlns:xlink="http://www.w3.org/1999/xlink">
      <g stroke="none" stroke-width="1" fill="none" fill-rule="evenodd">
          <g transform="translate(-213.000000, -463.000000)" fill="#000" fill-rule="nonzero">
              <g transform="translate(213.000000, 459.000000)">
                  <g transform="translate(0.000000, 4.000000)">
                      <path d="M28,4 L24,4 L20,0 L11.999,0 L8,4 L4,4 C4,4 0,4 0,8 L0,20 C0,24 4,24 4,24 C4,24 9.662,24 15.518,24 C17.132,26.411 19.879,27.999 23,28 C26.875,27.998 30.167,25.546 31.436,22.112 C31.995,21.076 32,20 32,20 C32,20 32,12 32,8 C32,4 28,4 28,4 Z M14.033,19.66 C11.686,18.847 10,16.626 10,14 C10,10.688 12.684,8 16,8 C17.914,8 19.607,8.908 20.706,10.306 C16.848,11.321 14,14.822 14,19 C14,19.223 14.018,19.441 14.033,19.66 Z M23,25.883 C19.199,25.874 16.124,22.799 16.115,19 C16.124,15.199 19.199,12.124 23,12.115 C26.799,12.124 29.874,15.199 29.883,19 C29.874,22.799 26.799,25.874 23,25.883 Z"></path>
                      <polygon points="28 18 24.002 18 24.002 14 22 14 22 18 18 18 18 20 22 20 22 24 24.002 24 24.002 20 28 20"></polygon>
                  </g>
              </g>
          </g>
      </g>
  </svg>