<svg width="117px" height="36px" viewBox="0 0 117 36" version="1.1" xmlns="http://www.w3.org/2000/svg" xmlns:xlink="http://www.w3.org/1999/xlink">
    <g id="Page-2" stroke="none" stroke-width="1" fill="none" fill-rule="evenodd">
        <g id="Location-Copy-7" transform="translate(-129.000000, -151.000000)" fill="#FFFFFF" fill-rule="nonzero">
            <g id="ImageSlider" transform="translate(0.000000, 60.000000)">
                <g id="Group" transform="translate(128.000000, 91.000000)">
                    <g id="iconfinder_camera_3671722" transform="translate(50.000000, 0.000000)">
                        <path d="M0,4 C0,2.9 0.9,2 2,2 L5,2 L7,0 L13,0 L15,2 L18,2 C19.1045695,2 20,2.8954305 20,4 L20,14 C20,15.1045695 19.1045695,16 18,16 L2,16 C0.8954305,16 1.3527075e-16,15.1045695 0,14 L0,4 Z M10,14 C12.7614237,14 15,11.7614237 15,9 C15,6.23857625 12.7614237,4 10,4 C7.23857625,4 5,6.23857625 5,9 C5,11.7614237 7.23857625,14 10,14 Z M10,12 C8.92820322,12 7.93782213,11.4282033 7.40192374,10.5 C6.86602534,9.57179678 6.86602534,8.42820322 7.40192374,7.49999998 C7.93782213,6.57179674 8.92820322,5.99999998 10,6 C11.6568542,6 13,7.34314575 13,9 C13,10.6568542 11.6568542,12 10,12 L10,12 Z" id="Shape"></path>
                    </g>
                    <path d="M6.657,29.61 C7.931,30.016 8.575,30.926 8.575,32.13 C8.575,33.698 7.399,35 5.019,35 L1.687,35 L1.687,24.584 L4.851,24.584 C7.077,24.584 8.239,25.746 8.239,27.286 C8.239,28.518 7.553,29.274 6.657,29.61 Z M2.975,25.76 L2.975,29.148 L4.851,29.148 C6.209,29.148 6.951,28.406 6.951,27.412 C6.951,26.376 6.195,25.76 4.949,25.76 L2.975,25.76 Z M4.991,33.824 C6.475,33.824 7.273,33.068 7.273,32.018 C7.273,30.87 6.335,30.226 5.061,30.226 L2.975,30.226 L2.975,33.824 L4.991,33.824 Z M11.193,25.69 C10.731,25.69 10.395,25.354 10.395,24.906 C10.395,24.458 10.731,24.122 11.193,24.122 C11.655,24.122 11.991,24.458 11.991,24.906 C11.991,25.354 11.655,25.69 11.193,25.69 Z M10.549,35 L10.549,27.426 L11.837,27.426 L11.837,35 L10.549,35 Z M14.245,35 L14.245,23.8 L15.533,23.8 L15.533,35 L14.245,35 Z M20.881,35.168 C19.103,35.168 17.437,33.628 17.437,31.22 C17.437,28.784 19.089,27.258 20.881,27.258 C21.931,27.258 22.981,27.79 23.499,28.742 L23.499,23.8 L24.787,23.8 L24.787,35 L23.737,35 L23.583,33.614 C23.009,34.636 21.959,35.168 20.881,35.168 Z M21.147,33.964 C22.477,33.964 23.527,32.844 23.527,31.206 C23.527,29.582 22.477,28.462 21.147,28.462 C19.789,28.462 18.725,29.582 18.725,31.22 C18.725,32.844 19.789,33.964 21.147,33.964 Z M33.565,31.066 C33.565,31.29 33.551,31.472 33.523,31.64 L27.909,31.64 C28.091,33.138 29.155,34.048 30.583,34.048 C31.451,34.048 32.347,33.726 33.131,33.054 L33.131,34.328 C32.361,34.888 31.465,35.168 30.485,35.168 C28.133,35.168 26.649,33.586 26.649,31.248 C26.649,28.798 28.343,27.258 30.303,27.258 C32.095,27.258 33.565,28.574 33.565,31.066 Z M27.909,30.674 L32.319,30.674 C32.291,29.106 31.325,28.378 30.289,28.378 C29.127,28.378 28.091,29.26 27.909,30.674 Z M35.413,35 L35.413,27.426 L36.435,27.426 L36.575,28.63 L36.589,28.63 C37.107,27.65 38.087,27.342 38.759,27.342 C38.955,27.342 39.109,27.356 39.263,27.384 L39.263,28.616 C39.095,28.588 38.913,28.56 38.731,28.56 C37.723,28.56 36.701,29.204 36.701,30.688 L36.701,35 L35.413,35 Z M45.787,23.8 L45.787,28.756 C46.305,27.79 47.369,27.258 48.419,27.258 C50.197,27.258 51.835,28.784 51.835,31.22 C51.835,33.628 50.169,35.168 48.391,35.168 C47.299,35.168 46.277,34.636 45.703,33.614 L45.549,35 L44.499,35 L44.499,23.8 L45.787,23.8 Z M48.139,28.462 C46.809,28.462 45.759,29.582 45.759,31.206 C45.759,32.844 46.809,33.964 48.139,33.964 C49.497,33.964 50.547,32.844 50.547,31.22 C50.547,29.582 49.497,28.462 48.139,28.462 Z M60.165,31.066 C60.165,31.29 60.151,31.472 60.123,31.64 L54.509,31.64 C54.691,33.138 55.755,34.048 57.183,34.048 C58.051,34.048 58.947,33.726 59.731,33.054 L59.731,34.328 C58.961,34.888 58.065,35.168 57.085,35.168 C54.733,35.168 53.249,33.586 53.249,31.248 C53.249,28.798 54.943,27.258 56.903,27.258 C58.695,27.258 60.165,28.574 60.165,31.066 Z M54.509,30.674 L58.919,30.674 C58.891,29.106 57.925,28.378 56.889,28.378 C55.727,28.378 54.691,29.26 54.509,30.674 Z M64.967,35.168 C63.189,35.168 61.523,33.614 61.523,31.22 C61.523,28.798 63.189,27.258 64.967,27.258 C66.059,27.258 67.095,27.804 67.669,28.826 L67.823,27.426 L68.873,27.426 L68.873,35 L67.823,35 L67.669,33.614 C67.095,34.636 66.059,35.168 64.967,35.168 Z M65.233,33.964 C66.563,33.964 67.627,32.844 67.627,31.206 C67.627,29.582 66.563,28.462 65.233,28.462 C63.875,28.462 62.825,29.582 62.825,31.22 C62.825,32.844 63.875,33.964 65.233,33.964 Z M71.225,35 L71.225,27.426 L72.247,27.426 L72.387,28.63 L72.401,28.63 C72.919,27.65 73.899,27.342 74.571,27.342 C74.767,27.342 74.921,27.356 75.075,27.384 L75.075,28.616 C74.907,28.588 74.725,28.56 74.543,28.56 C73.535,28.56 72.513,29.204 72.513,30.688 L72.513,35 L71.225,35 Z M77.777,23.8 L77.777,28.756 C78.295,27.79 79.359,27.258 80.409,27.258 C82.187,27.258 83.825,28.784 83.825,31.22 C83.825,33.628 82.159,35.168 80.381,35.168 C79.289,35.168 78.267,34.636 77.693,33.614 L77.539,35 L76.489,35 L76.489,23.8 L77.777,23.8 Z M80.129,28.462 C78.799,28.462 77.749,29.582 77.749,31.206 C77.749,32.844 78.799,33.964 80.129,33.964 C81.487,33.964 82.537,32.844 82.537,31.22 C82.537,29.582 81.487,28.462 80.129,28.462 Z M92.155,31.066 C92.155,31.29 92.141,31.472 92.113,31.64 L86.499,31.64 C86.681,33.138 87.745,34.048 89.173,34.048 C90.041,34.048 90.937,33.726 91.721,33.054 L91.721,34.328 C90.951,34.888 90.055,35.168 89.075,35.168 C86.723,35.168 85.239,33.586 85.239,31.248 C85.239,28.798 86.933,27.258 88.893,27.258 C90.685,27.258 92.155,28.574 92.155,31.066 Z M86.499,30.674 L90.909,30.674 C90.881,29.106 89.915,28.378 88.879,28.378 C87.717,28.378 86.681,29.26 86.499,30.674 Z M94.675,25.69 C94.213,25.69 93.877,25.354 93.877,24.906 C93.877,24.458 94.213,24.122 94.675,24.122 C95.137,24.122 95.473,24.458 95.473,24.906 C95.473,25.354 95.137,25.69 94.675,25.69 Z M94.031,35 L94.031,27.426 L95.319,27.426 L95.319,35 L94.031,35 Z M99.281,25.648 L99.281,27.426 L101.451,27.426 L101.451,28.546 L99.281,28.546 L99.281,32.298 C99.281,33.474 99.981,33.964 100.947,33.964 C101.157,33.964 101.381,33.936 101.619,33.894 L101.619,35.014 C101.479,35.042 101.143,35.098 100.723,35.098 C99.085,35.098 98.021,34.118 98.021,32.354 L98.021,28.546 L96.887,28.546 L96.887,27.426 L98.049,27.426 L98.049,25.648 L99.281,25.648 Z M109.599,31.066 C109.599,31.29 109.585,31.472 109.557,31.64 L103.943,31.64 C104.125,33.138 105.189,34.048 106.617,34.048 C107.485,34.048 108.381,33.726 109.165,33.054 L109.165,34.328 C108.395,34.888 107.499,35.168 106.519,35.168 C104.167,35.168 102.683,33.586 102.683,31.248 C102.683,28.798 104.377,27.258 106.337,27.258 C108.129,27.258 109.599,28.574 109.599,31.066 Z M103.943,30.674 L108.353,30.674 C108.325,29.106 107.359,28.378 106.323,28.378 C105.161,28.378 104.125,29.26 103.943,30.674 Z M114.947,27.258 C116.585,27.258 117.649,28.322 117.649,29.988 L117.649,35 L116.361,35 L116.361,30.45 C116.361,29.12 115.759,28.49 114.625,28.49 C113.547,28.49 112.735,29.274 112.735,30.38 L112.735,35 L111.447,35 L111.447,27.426 L112.441,27.426 L112.581,28.574 L112.623,28.574 C113.057,27.874 113.869,27.258 114.947,27.258 Z" id="Bilderbearbeiten"></path>
                </g>
            </g>
        </g>
    </g>
</svg>