<svg xmlns="http://www.w3.org/2000/svg" width="24" height="6" viewBox="0 0 24 6">
  <path fill="currentColor" d="M3.10625 6C1.3875 6 0 4.6625 0 3 0 1.34375 1.3875 0 3.10625 0 4.83125 0 6.21875 1.34375 6.21875 3 6.21875 4.6625 4.83125 6 3.10625 6zM12 6C10.28125 6 8.8875 4.6625 8.8875 3 8.8875 1.34375 10.28125 0 12 0 13.71875 0 15.10625 1.34375 15.10625 3 15.10625 4.6625 13.71875 6 12 6zM20.8875 6C19.16875 6 17.775 4.6625 17.775 3 17.775 1.34375 19.1625 0 20.8875 0 22.60625 0 24 1.34375 24 3 24 4.6625 22.6125 6 20.8875 6z"/>
</svg>
