<svg xmlns="http://www.w3.org/2000/svg" width="20" height="20" viewBox="0 0 20 20">
  <path d="M4.79,19.6389474 C3.80578947,19.6389474 2.88052632,19.2552632 2.18473684,18.5594737 L1.44,17.8157895 C0.00368421053,16.3794737 0.00368421053,14.0415789 1.44,12.6057895 L6.27789474,7.76789474 C6.97368421,7.07210526 7.89894737,6.68842105 8.88315789,6.68842105 C9.86736842,6.68842105 10.7926316,7.07210526 11.4878947,7.76789474 L12.2321053,8.51210526 C12.4378947,8.71789474 12.4378947,9.05052632 12.2321053,9.25631579 C12.0263158,9.46210526 11.6936842,9.46210526 11.4878947,9.25631579 L10.7436842,8.51210526 C10.2468421,8.01526316 9.58578947,7.74105263 8.88315789,7.74105263 C8.18,7.74105263 7.51894737,8.01526316 7.02210526,8.51210526 L2.18421053,13.3494737 C1.15842105,14.3752632 1.15842105,16.0447368 2.18421053,17.0710526 L2.92842105,17.8152632 C3.42526316,18.3121053 4.08631579,18.5863158 4.78947368,18.5863158 C5.49210526,18.5863158 6.15315789,18.3121053 6.65,17.8152632 L10,14.4657895 C10.2057895,14.26 10.5384211,14.26 10.7442105,14.4657895 C10.95,14.6715789 10.95,15.0042105 10.7442105,15.21 L7.39473684,18.5594737 C6.69947368,19.2557895 5.77421053,19.6389474 4.79,19.6389474 Z"/>
  <path d="M11.1163158,13.3121053 C10.1326316,13.3121053 9.20684211,12.9284211 8.51157895,12.2326316 C8.30578947,12.0268421 8.30578947,11.6942105 8.51157895,11.4884211 C8.71736842,11.2826316 9.05,11.2826316 9.25578947,11.4884211 C9.75263158,11.9852632 10.4136842,12.2594737 11.1163158,12.2594737 C11.8194737,12.2594737 12.4805263,11.9852632 12.9773684,11.4884211 L17.8152632,6.65052632 C18.8410526,5.62473684 18.8410526,3.95526316 17.8152632,2.92947368 L17.0715789,2.18421053 C16.0457895,1.15842105 14.3757895,1.15842105 13.35,2.18421053 L10,5.53421053 C9.79421053,5.74 9.46157895,5.74 9.25578947,5.53421053 C9.05,5.32842105 9.05,4.99578947 9.25578947,4.79 L12.6052632,1.44052632 C14.0415789,0.00421052632 16.3789474,0.00421052632 17.8152632,1.44052632 L18.5594737,2.18526316 C19.9957895,3.62157895 19.9957895,5.95894737 18.5594737,7.39473684 L13.7215789,12.2326316 C13.0263158,12.9284211 12.1005263,13.3121053 11.1163158,13.3121053 Z"/>
</svg>
