<svg xmlns="http://www.w3.org/2000/svg" width="24" height="11" viewBox="0 0 24 11">
  <path d="M1.47792,10.1832 C1.52784,10.1832 1.56816,10.14384 1.57632,10.08768 L1.8408,8.00928 L1.57632,5.88384 C1.56816,5.82768 1.52736,5.78928 1.47744,5.78928 C1.42752,5.78928 1.38624,5.8296 1.37904,5.88384 C1.37904,5.8848 1.14624,8.00928 1.14624,8.00928 L1.37904,10.08768 C1.38624,10.14288 1.428,10.1832 1.47792,10.1832 Z M0.60288,9.3936 C0.65088,9.3936 0.68976,9.3552 0.69744,9.30192 L0.9024,8.00928 L0.69744,6.69504 C0.69024,6.6408 0.65088,6.6024 0.60288,6.6024 C0.55344,6.6024 0.51456,6.64176 0.50784,6.696 L0.33504,8.00928 L0.50784,9.30096 C0.51456,9.3552 0.55392,9.3936 0.60288,9.3936 Z M2.52624,5.48832 C2.51856,5.42064 2.46864,5.37216 2.4072,5.37216 C2.3448,5.37216 2.29488,5.42112 2.28864,5.48832 C2.28864,5.48928 2.06784,8.01024 2.06784,8.01024 L2.28864,10.43952 C2.29488,10.5072 2.3448,10.55568 2.4072,10.55568 C2.46864,10.55568 2.51856,10.50672 2.52576,10.44048 L2.7768,8.01072 L2.52624,5.48832 Z M3.34512,10.65168 C3.41712,10.65168 3.47664,10.5936 3.48336,10.51584 L3.48336,10.51584 L3.72048,8.00976 L3.48336,5.41968 C3.47664,5.34096 3.41712,5.28288 3.34512,5.28288 C3.27168,5.28288 3.21168,5.34096 3.20592,5.41968 L2.99664,8.00976 L3.20592,10.51584 C3.21168,10.5936 3.2712,10.65168 3.34512,10.65168 Z M4.28976,10.69296 C4.37424,10.69296 4.4424,10.62624 4.44864,10.53648 L4.44864,10.53744 L4.67232,8.00976 L4.44864,5.60592 C4.44288,5.51664 4.37424,5.44944 4.28976,5.44944 C4.20432,5.44944 4.13568,5.51808 4.1304,5.60688 L3.9336,8.00976 L4.1304,10.53648 C4.13568,10.62672 4.20384,10.69296 4.28976,10.69296 Z M5.6304,8.01072 L5.42064,4.10112 C5.41536,4.00176 5.33664,3.924 5.2416,3.924 C5.14608,3.924 5.06784,4.00176 5.06256,4.10112 L4.87776,8.01072 L5.06256,10.5384 C5.06784,10.6368 5.14608,10.71456 5.2416,10.71456 C5.33664,10.71456 5.41536,10.6368 5.42064,10.53744 L5.42064,10.5384 L5.6304,8.01072 Z M6.2016,10.71936 C6.30816,10.71936 6.396,10.632 6.40128,10.5216 L6.40128,10.52352 L6.59664,8.01216 L6.40128,3.20832 C6.396,3.09696 6.30864,3.01056 6.2016,3.01056 C6.09456,3.01056 6.0072,3.09696 6.0024,3.20832 L5.8296,8.01216 L6.0024,10.52256 C6.0072,10.632 6.09504,10.71936 6.2016,10.71936 Z M7.16976,2.5896 C7.05024,2.5896 6.95424,2.68512 6.94992,2.808 L6.78864,8.01216 L6.94992,10.4976 C6.95376,10.61856 7.05024,10.71408 7.16976,10.71408 C7.28784,10.71408 7.38432,10.61856 7.38912,10.49664 L7.38912,10.49856 L7.57104,8.01216 L7.38912,2.808 C7.38432,2.68512 7.28784,2.5896 7.16976,2.5896 Z M8.14464,10.71936 C8.2752,10.71936 8.38032,10.61424 8.38464,10.48128 L8.38464,10.48224 L8.55264,8.01264 L8.38464,2.63232 C8.38032,2.4984 8.2752,2.39424 8.14464,2.39424 C8.01456,2.39424 7.90896,2.4984 7.90464,2.63232 L7.75536,8.01168 L7.90464,10.48176 C7.90896,10.61424 8.01456,10.71936 8.14464,10.71936 Z M9.12816,10.71648 C9.26976,10.71648 9.384,10.60224 9.38784,10.45776 L9.38784,10.45968 L9.54144,8.01264 L9.38784,2.76912 C9.384,2.62464 9.26976,2.51136 9.12816,2.51136 C8.9856,2.51136 8.87136,2.62464 8.868,2.76912 L8.73072,8.01264 L8.868,10.45872 C8.87088,10.60224 8.9856,10.71648 9.12816,10.71648 Z M10.53888,8.01264 L10.39872,2.96064 C10.39488,2.80512 10.27152,2.68224 10.1184,2.68224 C9.96432,2.68224 9.84144,2.80512 9.83808,2.9616 L9.7128,8.01264 L9.83856,10.44432 C9.84144,10.59792 9.96432,10.7208 10.1184,10.7208 C10.27152,10.7208 10.39488,10.59792 10.39872,10.44144 L10.39872,10.44432 L10.53888,8.01264 Z M11.11632,10.72608 C11.27904,10.72608 11.41344,10.59216 11.4168,10.42704 L11.4168,10.42896 L11.54304,8.01408 L11.4168,2.00304 C11.41344,1.83792 11.27904,1.704 11.11632,1.704 C10.95312,1.704 10.8192,1.83792 10.81632,2.00304 L10.70304,8.01264 C10.70304,8.01744 10.81632,10.42848 10.81632,10.42848 C10.8192,10.59168 10.95312,10.72608 11.11632,10.72608 Z M12.10992,1.13856 C11.93568,1.13856 11.79216,1.28256 11.78928,1.45872 L11.65824,8.01408 L11.78928,10.3944 C11.79216,10.56768 11.93568,10.7112 12.10992,10.7112 C12.28416,10.7112 12.42768,10.56768 12.43056,10.39248 L12.43056,10.3944 L12.57312,8.01408 L12.43056,1.45824 C12.42816,1.28208 12.28464,1.13856 12.10992,1.13856 Z M13.01952,10.728 C13.0272,10.72896 21.03504,10.7328 21.08688,10.7328 C22.69488,10.7328 23.9976,9.4296 23.9976,7.82208 C23.9976,6.21456 22.6944,4.91232 21.08688,4.91232 C20.68848,4.91232 20.30784,4.99296 19.96176,5.13744 C19.72944,2.51424 17.53104,0.45744 14.84784,0.45744 C14.19072,0.45744 13.55088,0.58704 12.98592,0.80592 C12.7656,0.89088 12.70752,0.97776 12.7056,1.14816 L12.7056,10.38528 C12.70752,10.56192 12.84576,10.70976 13.01952,10.728 Z"/>
</svg>
