<svg xmlns="http://www.w3.org/2000/svg" width="25" height="20" viewBox="0 0 25 20">
  <path fill="currentColor" d="M24.574,2.63475099 C23.6917151,3.02693173 22.7421993,3.29147104 21.745914,3.40985604 C22.763148,2.80087973 23.5431249,1.83626125 23.9109466,0.685539614 C22.959482,1.25018245 21.9061966,1.65990171 20.7842186,1.88108191 C19.8863439,0.924258328 18.6065193,0.326 17.190284,0.326 C14.4713266,0.326 12.2668323,2.53049425 12.2668323,5.24993886 C12.2668323,5.63529907 12.3101915,6.01091566 12.3944738,6.37191681 C8.30215297,6.16632641 4.67362852,4.20639705 2.245031,1.22728494 C1.82118348,1.95415906 1.57856732,2.79990537 1.57856732,3.70313903 C1.57856732,5.41119579 2.44769831,6.91853395 3.76893332,7.80130601 C2.9621615,7.77548542 2.20264625,7.55381804 1.53861848,7.18502198 C1.5381313,7.20548359 1.5381313,7.22643237 1.5381313,7.24738116 C1.5381313,9.63261957 3.23547007,11.622267 5.48819524,12.0753454 C5.07506571,12.187397 4.64001303,12.2478074 4.19083211,12.2478074 C3.87319006,12.2478074 3.56480446,12.217115 3.26421375,12.1591405 C3.89121576,14.1151724 5.70937543,15.5392026 7.86369003,15.5786643 C6.17853078,16.8994121 4.05588295,17.6866967 1.74859351,17.6866967 C1.35154095,17.6866967 0.959360209,17.663312 0.574,17.617517 C2.75364801,19.0152394 5.34155374,19.8298061 8.12189599,19.8298061 C17.1790789,19.8298061 22.1312742,12.327218 22.1312742,5.82042787 C22.1312742,5.60704257 22.1268896,5.39414445 22.1176332,5.18270787 C23.0793285,4.48993642 23.9143569,3.62226698 24.574,2.63475099 Z"/>
</svg>
