<svg xmlns="http://www.w3.org/2000/svg" width="25" height="25" viewBox="0 0 25 25">
  <g fill-rule="evenodd" fill="currentColor" transform="translate(.39 .39)">
    <path d="M23.9947171,11.3953795 C23.8362316,5.07458746 18.6273388,0 12.2192384,0 C5.88509795,0 0.723750825,4.95841584 0.44375963,11.1788779 C0.438476777,11.3478548 0.433193925,11.5221122 0.433193925,11.6910891 C0.433193925,13.9036304 1.0512877,15.9630363 2.1237068,17.7267327 L0,24 L6.52432313,21.9247525 C8.21483601,22.8488449 10.153643,23.3821782 12.2192384,23.3821782 C18.727713,23.3821782 24,18.1491749 24,11.6910891 C24,11.5907591 24,11.490429 23.9947171,11.3953795 Z M12.2192384,21.5181518 L12.2192384,21.5181518 C10.2064715,21.5181518 8.33634162,20.9214521 6.76733436,19.8917492 L2.96368039,21.1009901 L4.19458508,17.4521452 C3.01122606,15.8310231 2.30860665,13.840264 2.30860665,11.6910891 C2.30860665,11.3689769 2.32445521,11.0521452 2.36143517,10.7353135 C2.84745763,5.76105611 7.08430552,1.8640264 12.2192384,1.8640264 C17.4175655,1.8640264 21.6966762,5.86138614 22.0928902,10.9254125 C22.1140216,11.1788779 22.1245873,11.4323432 22.1245873,11.6910891 C22.1245873,17.1089109 17.6764253,21.5181518 12.2192384,21.5181518 Z"/>
    <path d="M17.6183139,14.0514851 C17.327757,13.9089109 15.9066696,13.2118812 15.642527,13.1168317 C15.3783843,13.0217822 15.1829188,12.9742574 14.9927361,13.2646865 C14.7972705,13.549835 14.242571,14.1940594 14.0788026,14.3788779 C13.9044684,14.5742574 13.7407,14.5953795 13.4501431,14.4528053 C13.1595862,14.310231 12.2298041,14.0145215 11.1256879,13.0323432 C10.2698657,12.2772277 9.68346907,11.3372937 9.51970064,11.0521452 C9.3559322,10.7669967 9.50385208,10.6085809 9.6464891,10.4660066 C9.77856042,10.3339934 9.93176315,10.1280528 10.0849659,9.96435644 C10.1219459,9.91683168 10.153643,9.86930693 10.1853401,9.82706271 C10.2540172,9.72145215 10.3015628,9.62112211 10.3702399,9.48382838 C10.4706141,9.29372937 10.4177856,9.12475248 10.3491085,8.98217822 C10.2751486,8.83960396 9.69931763,7.42970297 9.45630641,6.85412541 C9.21857803,6.28382838 8.97556681,6.37887789 8.80123267,6.37887789 C8.63746423,6.37887789 8.44199868,6.35247525 8.25181598,6.35247525 C8.05635043,6.35247525 7.74466212,6.42640264 7.48051948,6.71155116 C7.21637684,6.99669967 6.47149461,7.69372937 6.47149461,9.10363036 C6.47149461,9.43630363 6.52960599,9.76369637 6.61941448,10.0805281 C6.90997138,11.0891089 7.53863086,11.9234323 7.64957077,12.0660066 C7.79220779,12.2508251 9.6464891,15.239604 12.5837552,16.3960396 C15.5210214,17.5366337 15.5210214,17.1564356 16.0493066,17.1036304 C16.5828748,17.0613861 17.7609509,16.4171617 17.9986793,15.7412541 C18.2416905,15.0759076 18.2416905,14.50033 18.1677306,14.3788779 C18.0990535,14.2679868 17.9035879,14.1940594 17.6183139,14.0514851 Z"/>
  </g>
</svg>
