<svg xmlns="http://www.w3.org/2000/svg" width="24" height="17" viewBox="0 0 24 17">
  <path d="M23.2749551,4.05696538 C23.2749551,4.05696538 23.0499775,2.47138487 22.3599611,1.7729318 C21.4853608,0.856659552 20.5044075,0.852313392 20.054708,0.798625566 C16.8349723,0.565722656 12.0051131,0.565722656 12.0051131,0.565722656 L11.9948869,0.565722656 C11.9948869,0.565722656 7.16528334,0.565722656 3.94529195,0.798625566 C3.49559248,0.852313392 2.51515049,0.856659552 1.6400389,1.7729318 C0.950022492,2.47138487 0.72555624,4.05696538 0.72555624,4.05696538 C0.72555624,4.05696538 0.495465551,5.91891037 0.495465551,7.78085538 L0.495465551,9.52673238 C0.495465551,11.3884217 0.72555624,13.2503667 0.72555624,13.2503667 C0.72555624,13.2503667 0.950022492,14.8359472 1.6400389,15.5344003 C2.51515049,16.4509282 3.66483697,16.4215277 4.17691657,16.5176545 C6.01789776,16.694313 12,16.7490235 12,16.7490235 C12,16.7490235 16.8349723,16.7416094 20.054708,16.5089621 C20.5044075,16.4552743 21.4853608,16.4509282 22.3599611,15.5344003 C23.0499775,14.8359472 23.2749551,13.2503667 23.2749551,13.2503667 C23.2749551,13.2503667 23.5045345,11.3884217 23.5045345,9.52673238 L23.5045345,7.78085538 C23.5045345,5.91891037 23.2749551,4.05696538 23.2749551,4.05696538 Z M9.62469714,11.6417771 L9.6236745,5.17699572 L15.8407249,8.42050746 L9.62469714,11.6417771 Z"/>
</svg>
