<?xml version="1.0" encoding="utf-8"?>
<svg version="1.1" xmlns="http://www.w3.org/2000/svg" xmlns:xlink="http://www.w3.org/1999/xlink" height="30.000000323171662" width="40.27898824827571">
  <defs>
    <path id="path-1" opacity="1" fill-rule="evenodd" d="M38.54869266985283,11.970560649095814 C38.54869266985283,18.58390027107717 33.21245814095831,23.941121298191632 26.63137885415683,23.941121298191632 C20.050299567355346,23.941121298191632 14.71406503846083,18.583900271077177 14.71406503846083,11.970560649095818 C14.71406503846083,5.357221027114462 20.042000602302632,0 26.623079889104112,0 C33.204159175905595,0 38.54869266985283,5.357221027114459 38.54869266985283,11.970560649095814Z"/>
    <path id="path-2" opacity="1" fill-rule="evenodd" d="M23.83462763139257,11.970560649095814 C23.83462763139257,18.58390027107717 18.498393102497925,23.941121298191632 11.917313815696284,23.941121298191632 C5.336234528894642,23.941121298191632 0,18.58390027107717 0,11.970560649095814 C0,5.3572210271144565 5.3362345288946464,0 11.917313815696287,0 C18.49839310249793,0 23.83462763139257,5.357221027114459 23.83462763139257,11.970560649095814Z"/>
    <path id="path-3" opacity="1" fill-rule="evenodd" d="M19.270196852400588,2.5455118544987285 C16.49004355974152,4.7333210627768345 14.705766073408086,8.143974201157153 14.705766073408086,11.970560649096045 C14.705766073408086,15.797147097034939 16.49004355974152,19.20780023541526 19.270196852400588,21.395609443693367 C22.050350145059657,19.20780023541526 23.83462763139309,15.797147097034943 23.83462763139309,11.970560649096045 C23.83462763139309,8.14397420115715 22.050350145059657,4.741639728968005 19.270196852400588,2.5455118544987285Z"/>
    <path id="path-4" opacity="1" fill-rule="evenodd" d="M38.36679458618177,19.476501464843636 L38.36679458618177,20.027832031249886 L38.27495574951185,20.027832031249886 L38.27495574951185,19.476501464843636 L38.0606613159181,19.476501464843636 L38.0606613159181,19.36300659179676 L38.58108901977552,19.36300659179676 L38.58108901977552,19.476501464843636 L38.36679458618177,19.476501464843636 L38.36679458618177,19.476501464843636ZM39.39234924316419,19.379211425781136 L39.39234924316419,20.027832031249886 L39.285202026367315,20.027832031249886 L39.285202026367315,19.525146484374886 L39.101520538330206,19.94674682617176 L38.97906494140638,19.94674682617176 L38.81069183349622,19.525146484374886 L38.81069183349622,20.011596679687386 L38.70354461669935,20.011596679687386 L38.70354461669935,19.36300659179676 L38.8719177246095,19.36300659179676 L39.05559921264661,19.833251953124886 L39.23928070068372,19.379211425781136 L39.39234924316419,19.379211425781136 L39.39234924316419,19.379211425781136Z"/>
    <path id="path-5" opacity="1" fill-rule="evenodd" d="M1.21180361083556,29.39067545259354 L0.4639515616818244,29.39067545259354 L0.4639515616818244,25.912767878441276 L1.19713982537762,25.912767878441276 L1.19713982537762,26.33654624432025 C1.19713982537762,26.33654624432025 1.841118279389009,25.818615936753304 2.223603431249959,25.825089974169597 C2.967293901558713,25.83767873581131 3.41136812668625,26.4680640150107 3.41136812668625,26.4680640150107 C3.41136812668625,26.4680640150107 3.771600666904483,25.825089974169597 4.584470045865819,25.825089974169597 C5.7865241131077925,25.825089974169597 5.962863677018635,26.92106926326316 5.962863677018635,26.92106926326316 L5.962863677018635,29.376062468548255 L5.244339015289651,29.376062468548255 L5.244339015289651,27.213329858451683 C5.244339015289651,27.213329858451683 5.246917065676422,26.5557428335653 4.467159578711166,26.5557428335653 C3.6608114745360125,26.5557428335653 3.587333368690402,27.213329858451683 3.587333368690402,27.213329858451683 L3.587333368690402,29.376062468548255 L2.8394813195366666,29.376062468548255 L2.8394813195366666,27.198716874406404 C2.8394813195366666,27.198716874406404 2.7676381196658704,26.511902967146536 2.0916295456196266,26.511902967146536 C1.2136566877648127,26.511902967146536 1.1971398253776186,27.213329858451683 1.1971398253776186,27.213329858451683 L1.21180361083556,29.39067545259354Z"/>
    <path id="path-6" opacity="1" fill-rule="evenodd" d="M23.954815851439005,25.824615461329962 C23.572330424341352,25.818142338196594 22.928412338911958,26.336042474426918 22.928412338911958,26.336042474426918 L22.928412338911958,25.91318662002273 L22.194447815987587,25.91318662002273 L22.194447815987587,29.390318882251762 L22.942747583500324,29.390318882251762 L22.928412338911958,27.21318265890047 C22.928412338911958,27.21318265890047 22.94495865162563,26.513184791812456 23.82293160122603,26.513184791812456 C23.985987324727606,26.513184791812456 24.112623728601665,26.552543757598936 24.212850254029604,26.610331924374005 L24.456549412031837,25.93319113049703 C24.309490445307404,25.87150994701265 24.142252041480816,25.827788023091653 23.954815851439005,25.824615461329962Z"/>
    <path id="path-7" opacity="1" fill-rule="evenodd" d="M34.48956553389182,25.824615461329962 C34.10708010679409,25.818142338196594 33.46316202136456,26.336042474426918 33.46316202136456,26.336042474426918 L33.46316202136456,25.91318662002273 L32.729197498440044,25.91318662002273 L32.729197498440044,29.390318882251762 L33.477497265952934,29.390318882251762 L33.46316202136456,27.21318265890047 C33.46316202136456,27.21318265890047 33.47970833407824,26.513184791812456 34.35768128367882,26.513184791812456 C34.52073700718043,26.513184791812456 34.64737341105452,26.552543757598936 34.74759993648247,26.610331924374005 L34.99129909448476,25.93319113049703 C34.844240127760294,25.871514518427293 34.67700172393367,25.827792594506292 34.48956553389182,25.824615461329962Z"/>
    <path id="path-8" opacity="1" fill-rule="evenodd" d="M6.666509628296055,27.650329589843352 C6.669500350952305,26.812774658202727 7.261795043945469,25.810333251952727 8.381006240844883,25.810333251952727 C9.06513404846207,25.810333251952727 9.547504425048984,26.350341796874602 9.547504425048984,26.350341796874602 L9.547504425048984,25.911834716796477 L10.286222457885899,25.911834716796477 L10.286222457885899,29.393188476562102 L9.550096511840977,29.393188476562102 L9.55145454406754,29.038909912108977 C9.55145454406754,29.038909912108977 9.037801742553867,29.498901367187102 8.412542343139805,29.498901367187102 C7.340784072876133,29.498901367187102 6.663436889648594,28.508789062499602 6.666509628296055,27.650329589843352 L6.666509628296055,27.650329589843352ZM9.613838195800938,27.681732177733977 C9.613838195800938,27.040130615233977 9.125679016113438,26.518890380858977 8.524358749389805,26.518890380858977 C7.923040390014805,26.518890380858977 7.437747955322422,27.040130615233977 7.437747955322422,27.681732177733977 C7.437747955322422,28.323364257812102 7.923040390014805,28.841735839843352 8.524358749389805,28.841735839843352 C9.125679016113438,28.841735839843352 9.613838195800938,28.323364257812102 9.613838195800938,27.681732177733977 L9.613838195800938,27.681732177733977Z"/>
    <path id="path-9" opacity="1" fill-rule="evenodd" d="M28.134265899658004,27.650329589843352 C28.137256622314254,26.812774658202727 28.729549407958785,25.810333251952727 29.848758697509567,25.810333251952727 C30.53289031982402,25.810333251952727 31.0152587890623,26.350341796874602 31.0152587890623,26.350341796874602 L31.0152587890623,25.911834716796477 L31.753974914550582,25.911834716796477 L31.753974914550582,29.393188476562102 L31.017852783202926,29.393188476562102 L31.01921081542949,29.038909912108977 C31.01921081542949,29.038909912108977 30.505558013915817,29.498901367187102 29.880298614501754,29.498901367187102 C28.808536529540817,29.498901367187102 28.13119125366191,28.508789062499602 28.134265899658004,27.650329589843352 L28.134265899658004,27.650329589843352ZM31.08158874511699,27.681732177733977 C31.08158874511699,27.040130615233977 30.59342956542949,26.518890380858977 29.99211120605449,26.518890380858977 C29.39079284667949,26.518890380858977 28.905498504638473,27.040130615233977 28.905498504638473,27.681732177733977 C28.905498504638473,28.323364257812102 29.39079284667949,28.841735839843352 29.99211120605449,28.841735839843352 C30.59342956542949,28.841735839843352 31.08158874511699,28.323364257812102 31.08158874511699,27.681732177733977 L31.08158874511699,27.681732177733977Z"/>
    <path id="path-10" opacity="1" fill-rule="evenodd" d="M35.202198028564396,27.65032958984375 C35.205188751220646,26.81280517578125 35.79748153686518,25.810333251953125 36.91669082641596,25.810333251953125 C37.60082244873041,25.810333251953125 38.08319091796869,26.350341796875 38.08319091796869,26.350341796875 L38.08319091796869,24.53753662109375 L38.821907043456974,24.53753662109375 L38.821907043456974,29.3931884765625 L38.08578491210932,29.3931884765625 L38.08714294433588,29.038909912109375 C38.08714294433588,29.038909912109375 37.57349014282221,29.4989013671875 36.948230743408146,29.4989013671875 C35.87646865844721,29.4989013671875 35.1991233825683,28.5087890625 35.202198028564396,27.65032958984375 L35.202198028564396,27.65032958984375ZM38.149524688720646,27.681732177734375 C38.149524688720646,27.040130615234375 37.661365509033146,26.518890380859375 37.060047149658146,26.518890380859375 C36.458728790283146,26.518890380859375 35.97343444824213,27.040130615234375 35.97343444824213,27.681732177734375 C35.97343444824213,28.3233642578125 36.458728790283146,28.84173583984375 37.060047149658146,28.84173583984375 C37.661365509033146,28.84173583984375 38.149524688720646,28.3233642578125 38.149524688720646,27.681732177734375 L38.149524688720646,27.681732177734375Z"/>
    <path id="path-11" opacity="1" fill-rule="evenodd" d="M12.532230571110244,29.507579324955405 C11.76973776463543,29.507579324955405 11.065853860227435,29.03996200694057 11.065853860227435,29.03996200694057 L11.388456956811009,28.543117806552246 C11.388456956811009,28.543117806552246 12.054471961658718,28.849992300068994 12.532230571110244,28.849992300068994 C12.842642516968045,28.849992300068994 13.36180039533512,28.750102318722117 13.36806478253828,28.44082691823528 C13.374688812357675,28.113954314224735 12.495570878101478,28.01704763807336 12.495570878101478,28.01704763807336 C12.495570878101478,28.01704763807336 11.183164327382098,27.999206321007755 11.183164327382098,26.921069263262677 C11.183164327382098,26.243020586437748 11.838615747833618,25.81047699012379 12.678868425689657,25.81047699012379 C13.164374948136302,25.81047699012379 14.071925750554936,26.23425535600278 14.071925750554936,26.23425535600278 L13.705331572834233,26.80416447661751 C13.705331572834233,26.80416447661751 13.004603715874813,26.525181098115794 12.634876427096877,26.511902967146042 C12.322671772891834,26.500691115594563 11.945680070248253,26.649657975974325 11.945680070248253,26.921069263262684 C11.945680070248253,27.65846678782154 14.130580525404438,26.863613895473563 14.130580525404438,28.353148099680674 C14.130580525404438,29.330362036369735 13.240741204379624,29.507579324955405 12.532230571110244,29.507579324955405Z"/>
    <path id="path-12" opacity="1" fill-rule="evenodd" d="M15.34506795166571,24.904618264585224 L15.34506795166571,25.916043754173632 L14.694247847353836,25.916043754173632 L14.694247847353836,26.647470096926835 L15.34506795166571,26.647470096926835 L15.34506795166571,28.396036197571203 C15.34506795166571,28.396036197571203 15.28746825081791,29.57888973624239 16.56356374167693,29.57888973624239 C16.916375900568422,29.57888973624239 17.607169547710065,29.318890528466838 17.607169547710065,29.318890528466838 L17.3118635091897,28.558892844199843 C17.3118635091897,28.558892844199843 17.03715251518259,28.792414418367727 16.726985529984315,28.78460644215884 C16.137244118358904,28.769766715947306 16.153575746449626,28.393179063419822 16.153575746449626,28.393179063419822 L16.153575746449626,26.647470096926835 L17.36920448754317,26.647470096926835 L17.36920448754317,25.916043754173632 L16.153575746449626,25.916043754173632 L16.153575746449626,24.904618264585224 L15.34506795166571,24.904618264585224Z"/>
    <path id="path-13" opacity="1" fill-rule="evenodd" d="M17.979888916014893,27.693176269531193 C17.974960327147706,26.838226318359318 18.574569702147706,25.853179931640568 19.774658203124268,25.853179931640568 C21.57344055175708,25.853179931640568 21.383075714110596,27.930328369140568 21.383075714110596,27.930328369140568 L18.83140182495044,27.930328369140568 C18.83140182495044,27.930328369140568 18.893104553221924,28.858886718749943 19.846336364745362,28.858886718749943 C20.322444915770753,28.858886718749943 20.864139556884034,28.476043701171818 20.864139556884034,28.476043701171818 L21.205318450927003,29.067443847656193 C21.205318450927003,29.067443847656193 20.411495208739503,29.561737060546818 19.846336364745362,29.561737060546818 C18.525901794432862,29.561737060546818 17.984951019286378,28.572387695312443 17.979888916014893,27.693176269531193 L17.979888916014893,27.693176269531193ZM19.724185943602784,26.535675048828068 C19.70421218871997,26.535339355468693 19.684509277343018,26.534973144531193 19.665710449218018,26.536041259765568 C18.78846740722583,26.585754394531193 18.831398010253174,27.381774902343693 18.831398010253174,27.381774902343693 L20.646240234374268,27.381774902343693 C20.646240234374268,27.381774902343693 20.65262222289966,26.536041259765568 19.754589080809815,26.536041259765568 C19.744438171385987,26.536041259765568 19.734275817870362,26.535858154296818 19.724185943602784,26.535675048828068 L19.724185943602784,26.535675048828068Z"/>
    <path id="path-14" opacity="1" fill-rule="evenodd" d="M27.364667314586796,28.467085123940713 L27.706839740262865,29.149062474509186 C27.706839740262865,29.149062474509186 27.164516106640953,29.500383918309204 26.555898044941546,29.500383918309204 C25.29585894547709,29.500383918309204 24.59618524506368,28.555345426437814 24.59618524506368,27.661111808334066 C24.59618524506368,26.255705347787433 25.709638784920976,25.84250523539049 26.46257812567432,25.84250523539049 C27.146010108651065,25.84250523539049 27.737946074200053,26.235158667536567 27.737946074200053,26.235158667536567 L27.35429914824483,26.917136018105044 C27.35429914824483,26.917136018105044 27.12170762584138,26.55548134864778 26.44183995807909,26.55548134864778 C25.763107182960365,26.55548134864778 25.40495543216458,27.138647571724935 25.40495543216458,27.69211057102288 C25.40495543216458,28.312341824019054 25.821828932072588,28.8390721047723 26.452209041876703,28.8390721047723 C26.946730483576196,28.8390721047723 27.364667314586796,28.467085123940716 27.364667314586796,28.467085123940713Z"/>
    <path id="path-15" opacity="1" fill-rule="evenodd" d="M39.5204162597654,29.24353027343716 C39.603347778320085,29.16009521484341 39.708850860595476,29.116790771484034 39.836921691894304,29.11358642578091 C39.96252822875954,29.116790771484034 40.06683349609352,29.16009521484341 40.149829864501726,29.24353027343716 C40.232830047607195,29.32696533203091 40.27588272094704,29.43139648437466 40.27898788452126,29.556793212890284 C40.27581405639626,29.681243896484034 40.232627868652116,29.78540039062466 40.1494331359861,29.869232177734034 C40.06623458862282,29.953094482421534 39.96206283569313,29.996673583984034 39.836921691894304,29.99999999999966 C39.708850860595476,29.996673583984034 39.603347778320085,29.953094482421534 39.5204162597654,29.869232177734034 C39.43748474121071,29.78540039062466 39.39456558227516,29.681243896484034 39.39165878295876,29.556793212890284 C39.39456558227516,29.43139648437466 39.43748474121071,29.32696533203091 39.5204162597654,29.24353027343716 L39.5204162597654,29.24353027343716ZM39.59551620483376,29.80120849609341 C39.65887451171852,29.866119384765284 39.739341735839616,29.89978027343716 39.836921691894304,29.90222167968716 C39.93246078491188,29.89978027343716 40.01168441772438,29.866119384765284 40.074600219726335,29.80120849609341 C40.13751602172829,29.736297607421534 40.17013549804665,29.654815673827784 40.172466278075945,29.556793212890284 C40.17013549804665,29.45831298828091 40.13751602172829,29.37689208984341 40.074600219726335,29.31249999999966 C40.01168441772438,29.248138427734034 39.932456970214616,29.214752197265284 39.836921691894304,29.212432861327784 C39.739341735839616,29.214752197265284 39.65887451171852,29.248138427734034 39.59551620483376,29.31249999999966 C39.53215789794899,29.37689208984341 39.49935913085915,29.45831298828091 39.49711608886696,29.556793212890284 C39.49935913085915,29.654815673827784 39.53215789794899,29.736297607421534 39.59551620483376,29.80120849609341 L39.59551620483376,29.80120849609341ZM39.86248397827126,29.34930419921841 L39.67607116699196,29.34930419921841 L39.67607116699196,29.761016845702784 L39.76235580444313,29.761016845702784 L39.76235580444313,29.60675048828091 L39.80176925659157,29.60675048828091 L39.92426681518532,29.761016845702784 L40.027595520019304,29.761016845702784 L39.89550781249977,29.605682373046534 C39.93675994873024,29.60040283203091 39.96849822998024,29.586761474609034 39.990711212157976,29.564788818359034 C40.01292419433571,29.542816162109034 40.02415466308571,29.514801025390284 40.02439880371071,29.480743408202784 C40.02410888671852,29.440093994140284 40.0100402832029,29.40814208984341 39.98218917846657,29.38488769531216 C39.95433807373024,29.361602783202784 39.914436340331804,29.349761962890284 39.86248397827126,29.34930419921841 L39.86248397827126,29.34930419921841ZM39.915882110595476,29.44012451171841 C39.90272140502907,29.43103027343716 39.88456726074196,29.42645263671841 39.86141967773415,29.426422119140284 L39.76235580444313,29.426422119140284 L39.76235580444313,29.53613281249966 L39.86141967773415,29.53613281249966 C39.88456726074196,29.53613281249966 39.90272140502907,29.531524658202784 39.915882110595476,29.52227783203091 C39.929039001464616,29.51306152343716 39.93574142456032,29.49920654296841 39.93598556518532,29.480743408202784 C39.93574142456032,29.462799072265284 39.929039001464616,29.449249267577784 39.915882110595476,29.44012451171841 L39.915882110595476,29.44012451171841Z"/>
  </defs>
  <g opacity="1">
    <g opacity="1">
      <g opacity="1">
        <g opacity="1">
          <g opacity="1">
            <g opacity="1">
              <g opacity="1">
                <use xlink:href="#path-1" fill="rgb(247,159,26)" fill-opacity="1"/>
              </g>
              <g opacity="1">
                <use xlink:href="#path-2" fill="rgb(234,0,27)" fill-opacity="1"/>
              </g>
              <g opacity="1">
                <use xlink:href="#path-3" fill="rgb(255,95,1)" fill-opacity="1"/>
              </g>
            </g>
            <g opacity="1">
              <g opacity="1">
                <g opacity="1">
                  <use xlink:href="#path-4" fill="rgb(247,159,26)" fill-opacity="1"/>
                </g>
              </g>
            </g>
          </g>
        </g>
      </g>
    </g>
    <g opacity="1">
      <g opacity="1">
        <g opacity="1">
          <use xlink:href="#path-5" fill="rgb(0,0,0)" fill-opacity="1"/>
        </g>
        <g opacity="1">
          <use xlink:href="#path-6" fill="rgb(0,0,0)" fill-opacity="1"/>
        </g>
        <g opacity="1">
          <use xlink:href="#path-7" fill="rgb(0,0,0)" fill-opacity="1"/>
        </g>
        <g opacity="1">
          <use xlink:href="#path-8" fill="rgb(0,0,0)" fill-opacity="1"/>
        </g>
        <g opacity="1">
          <use xlink:href="#path-9" fill="rgb(0,0,0)" fill-opacity="1"/>
        </g>
        <g opacity="1">
          <use xlink:href="#path-10" fill="rgb(0,0,0)" fill-opacity="1"/>
        </g>
        <g opacity="1">
          <use xlink:href="#path-11" fill="rgb(0,0,0)" fill-opacity="1"/>
        </g>
        <g opacity="1">
          <use xlink:href="#path-12" fill="rgb(0,0,0)" fill-opacity="1"/>
        </g>
        <g opacity="1">
          <use xlink:href="#path-13" fill="rgb(0,0,0)" fill-opacity="1"/>
        </g>
        <g opacity="1">
          <use xlink:href="#path-14" fill="rgb(0,0,0)" fill-opacity="1"/>
        </g>
      </g>
      <g opacity="1">
        <g opacity="1">
          <g opacity="1">
            <use xlink:href="#path-15" fill="rgb(0,0,0)" fill-opacity="1"/>
          </g>
        </g>
      </g>
    </g>
  </g>
</svg>